<svg xmlns="http://www.w3.org/2000/svg" viewBox="0 0 800 261.953"><g fill="#F40000"><path d="M307.21 228.51c-29.77-19.177-70.168-22.542-135.32-4.466-69.458 16.322-92.616 26.785-123.03 5.78-11.683-10.317-15.872-26.93-12.744-50.86 7.255-39.01 26.86-76.55 61.686-118.193 19.44-21.66 37.47-40.25 61.28-47.716 18.248-4.683 16.542 9.658 14.334 11.71-2.33 0-6.244.366-9.27 2.34-2.454 1.904-9.193 8.052-9.555 16.322-.52 12.66 12.58 10.025 18.232 3.074 6.09-7.833 15.093-22.833 8.012-36.813C177.866 4.71 172.738 1.272 166.37.1c-21.8-1.245-42.106 9.148-60.845 20.638C64.543 49.208 31.76 88.655 13.21 131.835c-10.695 26.053-20.367 63.373-5.87 93.748 11.216 21.076 34.5 32.27 62.28 29.93 19.482-2.047 43.04-8.344 58.886-12.146 15.845-3.808 96.954-31.69 123.604 16.836 0 0 8.862-17.203 31.01-17.57 18.207-1.68 44.474 5.27 63.603 19.32-6.373-9.584-24.44-23.71-39.514-33.444z"/><path d="M180.16 65.674c-15.17-9.953-45.66 9.075-70.08 41.714-22.333 29.277-31.976 63.304-21.482 79.04 15.61 18.514 44.59-8.417 56.915-22.832l1.59-1.685c8.38-9 14.856-19.833 21.123-30.226 0 0 5.76-9.514 6.035-9.954 3.56-.656 7.85-1.68 12.68-3.072-.068.218-18.486 31.176-16.607 46.542.585 4.688.138 21.813 16.858 27.008 22.285 3.735 40.08-13.54 55.777-28.908 0 0 2.675-2.56 4.188-4.02a818.706 818.706 0 0 0-.882 3.578c-6.524 22.688 2.27 27.448 7.77 29.205 16.626 4.833 36.487-19.32 36.55-19.32-.514 7.608-2.02 13.902 6 18.952 7.57 2.71 15.23-1.42 21.054-5.3 20.975-14.783 37.873-37.92 51.522-57.92h-8.707c-.103 0-21.483 30.988-35.366 37.723-.022 0-2.548 1.297-4.004.27-1.802-1.537-1.09-4.733.022-6.997.07-.147 53.603-92.995 53.603-92.995h-25.276s-2.76 4.467-2.986 4.76c-.17-.146-.575-.914-.856-1.282-15.66-21.662-51.123 11.658-77.822 50.298-10.28 14.86-23.366 31.588-36.936 43.663 0 0-20.103 18.428-28.693 5.188-3.14-5.562-2.175-13.695-.404-19.036 10-28.47 27.234-54.306 46.844-69.896 5.536-4.315 11.553-5.563 14.54-3.733 2.844 1.686 3.303 5.854 1.503 8.71-4.567-.147-8.226 1.24-11.2 4.315-5.86 6.148-7.897 12.077-6.034 17.64 9.05 12.88 27.1-12.59 26.228-28.104-.312-5.563-3.28-10.83-7.71-13.395-6.6-3.95-16.67-2.926-23.187.223-8.723 3.292-22.533 14.78-30.594 23.71-10.148 11.2-27.552 23.64-32.995 22.247 1.784-4.76 16.485-34.837 1.02-46.106zm121.86 44.496c4.918-6.805 19.23-25.03 22.718-28.102 11.734-10.323 16.424-5.78 16.83-2.563-10.95 19.613-23.876 42.082-36.028 62.282.025-.072-3.803 5.78-3.803 5.78-5.367 8.196-10.77 15.222-19.586 20.125-1.256.368-3.328.515-4.707-.513-1.66-1.1-2.315-2.93-2.128-4.833.528-6.292 6.935-25.536 26.706-52.177zm-137.504 11.782s-.22.66-.33.877c-.027 0-11.02 17.927-11.02 17.927-6.633 8.857-14.916 19.984-25.27 25.324-3.07 1.026-7.31 1.686-9.473-1.02-4.583-5.49-2.22-13.1-.302-19.248l.68-2.196c5.502-14.928 14.232-28.104 22.73-40.326.105-.072.343-.145.43-.145.02.073.053.073.068.22 5.332 10.244 15.33 15 22.807 17.198.045 0 .093.073.093.22 0 .218-.12.513-.412 1.17zm10.414-21.148c-.048.146-4.896 11.27-4.896 11.27-.7.584-1.81.292-3.08 0l-2.175-.37c-6.834-2.12-11.988-6.658-13.577-12.073-2.192-10.538 6.81-18.808 10.778-21.807 3.807-2.637 9.724-4.027 13.16-1.318 2.12 2.49 2.922 5.708 2.922 9.223 0 4.756-1.467 10.098-3.132 15.076zM494.47 134.76c-2.437-5.27-8.223-8.636-14.39-8.27-20.022 1.83-39.607 18.296-49.89 41.933-5.396 12.15-8.34 22.175-10.272 38.13 6.226-7.17 18.926-18.953 33.338-25.394 0 0 1.96-15.296 11.96-28.91 3.785-5.636 11.358-14.71 19.86-12.296 7.43 2.49 4.82 23.055-5.055 42.957-7.305 14.64-18.485 29.28-29.797 39.378-10 8.49-24.798 18.735-37.744 10.832-8.155-4.828-12.314-14.93-11.435-27.957 3.896-36.957 20.72-68.427 44.794-104.287 24.823-33.3 52.187-67.476 89.05-85.702 7.52-3.805 14.482-4.683 20.5-2.34 0 0-34.603 19.027-51.098 54.23-4.196 8.93-10.032 21.002-4.155 31.688 3.07 5.56 8.524 6 12.914 5.708 20.22-4.685 33.283-23.566 43.956-40.836 6.188-13.1 11.688-26.127 11.688-40.618 0-1.756-.09-4.097-.24-5.855 9.66-5.12 29.468 3.953 29.468 3.953 15.48 5.125 48.438 30.375 59.556 35.203 5.423-6.293 14.335-15.806 19.353-20.564l-7.263-4.465c-11.63-7.1-23.923-13.833-36.023-20.492-27.48-15-49.846-9.733-61.23-5.634-4.474 1.61-8.563 3-8.563 3-8.447-9.22-22.302-8.344-32.51-5.854-36.715 10.538-70.802 36.225-107.347 80.796-26.868 34.91-43.534 65.063-52.417 94.848-6.847 20.05-8.928 49.545 7.784 67.037 14.21 14.852 33.05 11.635 46.355 6.294 28.827-14.197 54.736-44.79 67.646-79.992 3.116-10.464 6.574-25.247 1.21-36.52zm66.286-110.29c-3.816 43.766-37.835 69.456-46.252 71.502-5.1 1.023-13.805-1.244-6.035-19.61 11.442-24.74 30.978-45.742 51.94-56.5.51 1.83.496 2.997.346 4.61zM762.555 30.03c-18.3 10.395-37.268 17.126-60.23 14.785-6.365 7.174-12.56 14.565-18.272 22.175 32.23 8.197 66.397-10.026 85.452-27.37C789.663 22.13 800 .103 800 .103s-15.11 17.27-37.445 29.93zM416.73 66.476h-24.005l-13.54 22h24z"/><path d="M702.228 230.546c-2.58 1.756-6.207.406-4.85-3.618 3.376-10.246 16.802-31.126 16.802-31.126l37.396-66.326H725.96c-1.217 2-3.82 6.593-3.82 6.593-1.186-1.975-4.73-6.365-6.19-7.313-6.257-3.955-15.44-2.085-21.773 1.5-27.54 16.103-47.632 47.918-63.478 72.73 0 0-16.682 27.58-25.942 29.63-7.23.586-6.483-9.152-6.17-11.42 2.795-16.397 9.286-31.984 15.826-46.11 13.3-9.22 28.48-21.295 42.276-34.54 29.938-28.62 55.177-61.04 58.866-68.285 0 0-3.993.806-8.708.95-23.032 32.13-70.164 78.823-84.453 85.774 6.33-15.225 47.227-87.896 82.03-122.658l5.477-5.27c8.468-8.27 17.243-16.76 24.08-18.15.723-.074 1.653 0 2.456 1.685.305 6.44-2.092 11.197-4.842 16.612l-3.854 7.905s5.46-1.025 9.044-2.2c4.16-7.826 8.767-16.61 7.07-27.074-.568-3.367-3.005-5.928-6.19-6.514-10.382-1.976-21.697 5.706-30.8 11.93l-.37.217c-46.8 36.665-86.32 89.505-120.87 161.666-2.505 1.9-12.18 4.17-13.825 3.072 3.413-7.024 7.71-16.467 9.86-26.713.37-2.928.717-5.927.717-8.854 0-6.298-1.512-12.224-7.155-16.32-6.616-3.295-14.793-1.757-20.306.73-24.698 10.246-43.157 35.57-56.477 56.425-7.165 13.25-14.308 27.44-16.286 43.69-1.393 12.733 1.443 20.93 8.682 25.03 7.445 3.803 16.815-.15 20.496-2.05 25.02-13.174 42.503-39.592 56.284-63.745.548-.072 8.072-.29 13.763-1.756.075 0 .107 0 .233.077-.326 1.094-3.267 9.88-3.267 9.88-8.734 25.612-12.773 43.032-4.523 53.35 11.79 14.564 31.306-.51 47.183-20.42-3.408 23.857 8.957 27.59 18.382 25.763 10.827-2.926 22.892-14.492 28.49-20.418-1.797 6.95-1.308 19.394 8.54 20.637 6.752 1.248 11.804-2.424 17.65-5.572 20.97-11.418 46.07-49.465 52.587-60.465h-8.545c-9.264 14-21.053 32.358-35.882 41.07zm-188.218-2.548c-1.33-1.976-1.77-4.137-1.815-6.473-.255-14.35 15.184-40.05 26.082-54.05h.023c4.567 10 14.91 16.43 21.152 19.138-7.754 17.273-34.347 54.265-45.442 41.385zm49.818-49.107c-.74.516-13.78-3.877-16.3-15.952-2.138-10.396 5.02-18.52 11.947-22.614 2.973-2.343 7.45-3.146 10.736-1.98 3.05 2.052 3.876 5.714 3.876 9.66 0 2.42-.32 4.906-.604 7.174l-.063.514a97.453 97.453 0 0 1-9.592 23.2zm104.596 44.498c-.01 0-2.474 2.195-2.474 2.195-3.518 3.145-7.138 6.512-11.508 4.828-1.207-.438-2.056-2.046-2.26-3.294-.2-9.002 3.855-17.343 7.786-25.465l1.008-2.123c11.308-18.88 24.452-41.13 43.756-56.57 3.253-2.346 6.783-4.318 10.51-2.78.856.803 1.854 2.195 1.854 3.584 0 .442-.39 1.612-.617 1.976-5.392 8.713-10.527 17.86-15.52 26.64-9.758 17.347-19.88 35.275-32.536 51.012z"/></g></svg>